<svg width="75" height="75" fill="none" xmlns="http://www.w3.org/2000/svg"><path d="M0 18.75s0-9.375 9.375-9.375h56.25S75 9.375 75 18.75v28.125s0 9.375-9.375 9.375h-18.75c0 3.127.39 5.47 1.172 7.031h3.516a2.344 2.344 0 010 4.688H23.436a2.344 2.344 0 010-4.688h3.516c.783-1.56 1.172-3.904 1.172-7.031H9.375S0 56.25 0 46.875V18.75zm6.553-4.008a3.553 3.553 0 00-1.19 1.416c-.4.825-.63 1.723-.676 2.639v28.078c0 1.523.366 2.353.68 2.822.328.492.797.881 1.416 1.19.79.383 1.646.61 2.522.67l.117.005h56.203c1.523 0 2.353-.365 2.822-.68a3.553 3.553 0 001.19-1.415c.383-.79.61-1.646.67-2.522l.005-.117V18.75c0-1.523-.365-2.353-.68-2.822a3.549 3.549 0 00-1.415-1.19 6.843 6.843 0 00-2.639-.675H9.375c-1.523 0-2.353.365-2.822.68z" fill="#00C4F0"/></svg>