<svg width="96" height="96" fill="none" xmlns="http://www.w3.org/2000/svg"><path fill-rule="evenodd" clip-rule="evenodd" d="M63.498 78.644a2.343 2.343 0 01-2.347 2.346H34.635a2.343 2.343 0 01-2.347-2.346v-12.61l-8.233-13.728a7.031 7.031 0 01-.163-6.95L47.893.777l24.004 44.58a7.031 7.031 0 01-.162 6.945l-8.237 13.725v12.615zm-3.672-15.606l7.888-13.145a2.344 2.344 0 00.053-2.32l-19.87-36.908L28.018 47.58a2.344 2.344 0 00.056 2.31l7.889 13.153h23.865l-.004-.004z" fill="#00C4F0"/><path fill-rule="evenodd" clip-rule="evenodd" d="M47.694 11.04L44.58 42.183a4.688 4.688 0 106.629 0L48.092 11.04l-.199-.371-.199.37z" fill="#00C4F0"/></svg>